<?xml version="1.0" encoding="UTF-8"?>
<svg id="Calque_1" xmlns="http://www.w3.org/2000/svg" version="1.1" viewBox="0 0 99.04 99.04">
  <!-- Generator: Adobe Illustrator 29.6.1, SVG Export Plug-In . SVG Version: 2.1.1 Build 9)  -->
  <rect x="3.64" y="3.64" width="3.67" height="22.02"/>
  <rect x="3.64" y="25.66" width="3.67" height="3.67"/>
  <rect x="3.64" y="33" width="3.67" height="11.01"/>
  <rect x="3.64" y="44.02" width="3.67" height="3.67"/>
  <rect x="3.64" y="51.36" width="3.67" height="14.68"/>
  <rect x="3.64" y="69.71" width="3.67" height="7.34"/>
  <rect x="3.64" y="77.05" width="3.67" height="11.01"/>
  <rect x="3.64" y="88.07" width="3.67" height="7.34"/>
  <rect x="7.31" y="3.64" width="3.67" height="3.67"/>
  <rect x="7.31" y="25.66" width="3.67" height="3.67"/>
  <rect x="7.31" y="36.67" width="3.67" height="3.67"/>
  <rect x="7.31" y="44.02" width="3.67" height="7.34"/>
  <rect x="7.31" y="55.03" width="3.67" height="3.67"/>
  <rect x="7.31" y="69.71" width="3.67" height="3.67"/>
  <rect x="7.31" y="91.74" width="3.67" height="3.67"/>
  <rect x="10.98" y="3.64" width="3.67" height="3.67"/>
  <rect x="10.98" y="10.98" width="3.67" height="11.01"/>
  <rect x="10.98" y="25.66" width="3.67" height="3.67"/>
  <rect x="10.98" y="36.67" width="3.67" height="3.67"/>
  <rect x="10.98" y="44.02" width="3.67" height="3.67"/>
  <rect x="10.98" y="58.7" width="3.67" height="7.34"/>
  <rect x="10.98" y="69.71" width="3.67" height="3.67"/>
  <rect x="10.98" y="77.05" width="3.67" height="11.01"/>
  <rect x="10.98" y="91.74" width="3.67" height="3.67"/>
  <rect x="14.65" y="3.64" width="3.67" height="3.67"/>
  <rect x="14.65" y="10.98" width="3.67" height="11.01"/>
  <rect x="14.65" y="25.66" width="3.67" height="3.67"/>
  <rect x="14.65" y="33" width="3.67" height="7.34"/>
  <rect x="14.65" y="47.69" width="3.67" height="7.34"/>
  <rect x="14.65" y="58.7" width="3.67" height="7.34"/>
  <rect x="14.65" y="69.71" width="3.67" height="3.67"/>
  <rect x="14.65" y="77.05" width="3.67" height="11.01"/>
  <rect x="14.65" y="91.74" width="3.67" height="3.67"/>
  <rect x="18.32" y="3.64" width="3.67" height="3.67"/>
  <rect x="18.32" y="10.98" width="3.67" height="11.01"/>
  <rect x="18.32" y="25.66" width="3.67" height="3.67"/>
  <rect x="18.32" y="33" width="3.67" height="11.01"/>
  <rect x="18.32" y="51.36" width="3.67" height="3.67"/>
  <rect x="18.32" y="58.7" width="3.67" height="3.67"/>
  <rect x="18.32" y="69.71" width="3.67" height="3.67"/>
  <rect x="18.32" y="77.05" width="3.67" height="11.01"/>
  <rect x="18.32" y="91.74" width="3.67" height="3.67"/>
  <rect x="21.99" y="3.64" width="3.67" height="3.67"/>
  <rect x="21.99" y="25.66" width="3.67" height="3.67"/>
  <rect x="21.99" y="33" width="3.67" height="3.67"/>
  <rect x="21.99" y="40.35" width="3.67" height="3.67"/>
  <rect x="21.99" y="44.02" width="3.67" height="3.67"/>
  <rect x="21.99" y="55.03" width="3.67" height="7.34"/>
  <rect x="21.99" y="69.71" width="3.67" height="3.67"/>
  <rect x="21.99" y="91.74" width="3.67" height="3.67"/>
  <rect x="25.66" y="3.64" width="3.67" height="22.02"/>
  <rect x="25.66" y="25.66" width="3.67" height="3.67"/>
  <rect x="25.66" y="33" width="3.67" height="3.67"/>
  <rect x="25.66" y="40.35" width="3.67" height="3.67"/>
  <rect x="25.66" y="47.69" width="3.67" height="3.67"/>
  <rect x="25.66" y="55.03" width="3.67" height="3.67"/>
  <rect x="25.66" y="62.37" width="3.67" height="3.67"/>
  <rect x="25.66" y="69.71" width="3.67" height="7.34"/>
  <rect x="25.66" y="77.05" width="3.67" height="11.01"/>
  <rect x="25.66" y="88.07" width="3.67" height="7.34"/>
  <rect x="29.33" y="33" width="3.67" height="7.34"/>
  <rect x="29.33" y="44.02" width="3.67" height="7.34"/>
  <rect x="29.33" y="55.03" width="3.67" height="11.01"/>
  <rect x="33" y="3.64" width="3.67" height="11.01"/>
  <rect x="33" y="18.32" width="3.67" height="3.67"/>
  <rect x="33" y="25.66" width="3.67" height="3.67"/>
  <rect x="33" y="33" width="3.67" height="11.01"/>
  <rect x="33" y="47.69" width="3.67" height="7.34"/>
  <rect x="33" y="58.7" width="3.67" height="7.34"/>
  <rect x="33" y="66.04" width="3.67" height="11.01"/>
  <rect x="33" y="77.05" width="3.67" height="7.34"/>
  <rect x="33" y="91.74" width="3.67" height="3.67"/>
  <rect x="36.67" y="7.31" width="3.67" height="3.67"/>
  <rect x="36.67" y="14.65" width="3.67" height="3.67"/>
  <rect x="36.67" y="21.99" width="3.67" height="3.67"/>
  <rect x="36.67" y="29.33" width="3.67" height="3.67"/>
  <rect x="36.67" y="40.35" width="3.67" height="3.67"/>
  <rect x="36.67" y="55.03" width="3.67" height="3.67"/>
  <rect x="36.67" y="62.37" width="3.67" height="3.67"/>
  <rect x="36.67" y="66.04" width="3.67" height="3.67"/>
  <rect x="36.67" y="73.38" width="3.67" height="3.67"/>
  <rect x="36.67" y="77.05" width="3.67" height="11.01"/>
  <rect x="36.67" y="88.07" width="3.67" height="3.67"/>
  <rect x="40.35" y="7.31" width="3.67" height="3.67"/>
  <rect x="40.35" y="18.32" width="3.67" height="7.34"/>
  <rect x="40.35" y="25.66" width="3.67" height="11.01"/>
  <rect x="40.35" y="40.35" width="3.67" height="3.67"/>
  <rect x="40.35" y="47.69" width="3.67" height="7.34"/>
  <rect x="40.35" y="58.7" width="3.67" height="3.67"/>
  <rect x="40.35" y="66.04" width="3.67" height="3.67"/>
  <rect x="40.35" y="88.07" width="3.67" height="7.34"/>
  <rect x="44.02" y="3.64" width="3.67" height="11.01"/>
  <rect x="44.02" y="33" width="3.67" height="3.67"/>
  <rect x="44.02" y="40.35" width="3.67" height="3.67"/>
  <rect x="44.02" y="47.69" width="3.67" height="3.67"/>
  <rect x="44.02" y="58.7" width="3.67" height="3.67"/>
  <rect x="44.02" y="69.71" width="3.67" height="3.67"/>
  <rect x="44.02" y="77.05" width="3.67" height="11.01"/>
  <rect x="47.69" y="3.64" width="3.67" height="3.67"/>
  <rect x="47.69" y="14.65" width="3.67" height="3.67"/>
  <rect x="47.69" y="21.99" width="3.67" height="3.67"/>
  <rect x="47.69" y="25.66" width="3.67" height="7.34"/>
  <rect x="47.69" y="40.35" width="3.67" height="3.67"/>
  <rect x="47.69" y="47.69" width="3.67" height="7.34"/>
  <rect x="47.69" y="62.37" width="3.67" height="3.67"/>
  <rect x="47.69" y="66.04" width="3.67" height="3.67"/>
  <rect x="47.69" y="77.05" width="3.67" height="3.67"/>
  <rect x="47.69" y="91.74" width="3.67" height="3.67"/>
  <rect x="51.36" y="3.64" width="3.67" height="22.02"/>
  <rect x="51.36" y="29.33" width="3.67" height="3.67"/>
  <rect x="51.36" y="40.35" width="3.67" height="3.67"/>
  <rect x="51.36" y="51.36" width="3.67" height="7.34"/>
  <rect x="51.36" y="62.37" width="3.67" height="3.67"/>
  <rect x="51.36" y="66.04" width="3.67" height="3.67"/>
  <rect x="51.36" y="73.38" width="3.67" height="3.67"/>
  <rect x="51.36" y="84.39" width="3.67" height="3.67"/>
  <rect x="55.03" y="3.64" width="3.67" height="11.01"/>
  <rect x="55.03" y="18.32" width="3.67" height="7.34"/>
  <rect x="55.03" y="25.66" width="3.67" height="18.35"/>
  <rect x="55.03" y="44.02" width="3.67" height="3.67"/>
  <rect x="55.03" y="51.36" width="3.67" height="7.34"/>
  <rect x="55.03" y="62.37" width="3.67" height="3.67"/>
  <rect x="55.03" y="73.38" width="3.67" height="3.67"/>
  <rect x="55.03" y="77.05" width="3.67" height="11.01"/>
  <rect x="55.03" y="88.07" width="3.67" height="3.67"/>
  <rect x="58.7" y="29.33" width="3.67" height="14.68"/>
  <rect x="58.7" y="44.02" width="3.67" height="22.02"/>
  <rect x="58.7" y="73.38" width="3.67" height="3.67"/>
  <rect x="58.7" y="77.05" width="3.67" height="3.67"/>
  <rect x="62.37" y="10.98" width="3.67" height="3.67"/>
  <rect x="62.37" y="18.32" width="3.67" height="7.34"/>
  <rect x="62.37" y="25.66" width="3.67" height="11.01"/>
  <rect x="62.37" y="40.35" width="3.67" height="3.67"/>
  <rect x="62.37" y="44.02" width="3.67" height="14.68"/>
  <rect x="62.37" y="62.37" width="3.67" height="3.67"/>
  <rect x="62.37" y="66.04" width="3.67" height="11.01"/>
  <rect x="62.37" y="77.05" width="3.67" height="3.67"/>
  <rect x="62.37" y="84.39" width="3.67" height="3.67"/>
  <rect x="62.37" y="91.74" width="3.67" height="3.67"/>
  <rect x="66.04" y="33" width="3.67" height="7.34"/>
  <rect x="66.04" y="51.36" width="3.67" height="14.68"/>
  <rect x="66.04" y="77.05" width="3.67" height="3.67"/>
  <rect x="66.04" y="84.39" width="3.67" height="3.67"/>
  <rect x="66.04" y="91.74" width="3.67" height="3.67"/>
  <rect x="69.71" y="3.64" width="3.67" height="22.02"/>
  <rect x="69.71" y="25.66" width="3.67" height="3.67"/>
  <rect x="69.71" y="40.35" width="3.67" height="3.67"/>
  <rect x="69.71" y="47.69" width="3.67" height="3.67"/>
  <rect x="69.71" y="55.03" width="3.67" height="3.67"/>
  <rect x="69.71" y="62.37" width="3.67" height="3.67"/>
  <rect x="69.71" y="69.71" width="3.67" height="3.67"/>
  <rect x="69.71" y="77.05" width="3.67" height="7.34"/>
  <rect x="73.38" y="3.64" width="3.67" height="3.67"/>
  <rect x="73.38" y="25.66" width="3.67" height="3.67"/>
  <rect x="73.38" y="36.67" width="3.67" height="7.34"/>
  <rect x="73.38" y="44.02" width="3.67" height="3.67"/>
  <rect x="73.38" y="58.7" width="3.67" height="7.34"/>
  <rect x="73.38" y="77.05" width="3.67" height="3.67"/>
  <rect x="73.38" y="88.07" width="3.67" height="3.67"/>
  <rect x="77.05" y="3.64" width="3.67" height="3.67"/>
  <rect x="77.05" y="10.98" width="3.67" height="11.01"/>
  <rect x="77.05" y="25.66" width="3.67" height="3.67"/>
  <rect x="77.05" y="33" width="3.67" height="7.34"/>
  <rect x="77.05" y="51.36" width="3.67" height="7.34"/>
  <rect x="77.05" y="62.37" width="3.67" height="3.67"/>
  <rect x="77.05" y="66.04" width="3.67" height="11.01"/>
  <rect x="77.05" y="77.05" width="3.67" height="3.67"/>
  <rect x="77.05" y="84.39" width="3.67" height="3.67"/>
  <rect x="77.05" y="88.07" width="3.67" height="3.67"/>
  <rect x="80.72" y="3.64" width="3.67" height="3.67"/>
  <rect x="80.72" y="10.98" width="3.67" height="11.01"/>
  <rect x="80.72" y="25.66" width="3.67" height="3.67"/>
  <rect x="80.72" y="36.67" width="3.67" height="7.34"/>
  <rect x="80.72" y="44.02" width="3.67" height="3.67"/>
  <rect x="80.72" y="55.03" width="3.67" height="7.34"/>
  <rect x="80.72" y="84.39" width="3.67" height="3.67"/>
  <rect x="80.72" y="91.74" width="3.67" height="3.67"/>
  <rect x="84.39" y="3.64" width="3.67" height="3.67"/>
  <rect x="84.39" y="10.98" width="3.67" height="11.01"/>
  <rect x="84.39" y="25.66" width="3.67" height="3.67"/>
  <rect x="84.39" y="33" width="3.67" height="7.34"/>
  <rect x="84.39" y="44.02" width="3.67" height="3.67"/>
  <rect x="84.39" y="55.03" width="3.67" height="11.01"/>
  <rect x="84.39" y="66.04" width="3.67" height="3.67"/>
  <rect x="84.39" y="84.39" width="3.67" height="3.67"/>
  <rect x="84.39" y="88.07" width="3.67" height="3.67"/>
  <rect x="88.06" y="3.64" width="3.67" height="3.67"/>
  <rect x="88.06" y="25.66" width="3.67" height="3.67"/>
  <rect x="88.06" y="33" width="3.67" height="7.34"/>
  <rect x="88.06" y="44.02" width="3.67" height="3.67"/>
  <rect x="88.06" y="51.36" width="3.67" height="7.34"/>
  <rect x="88.06" y="62.37" width="3.67" height="3.67"/>
  <rect x="88.06" y="66.04" width="3.67" height="3.67"/>
  <rect x="88.06" y="80.72" width="3.67" height="7.34"/>
  <rect x="88.06" y="88.07" width="3.67" height="3.67"/>
  <rect x="91.74" y="3.64" width="3.67" height="22.02"/>
  <rect x="91.74" y="25.66" width="3.67" height="3.67"/>
  <rect x="91.74" y="33" width="3.67" height="3.67"/>
  <rect x="91.74" y="40.35" width="3.67" height="3.67"/>
  <rect x="91.74" y="44.02" width="3.67" height="7.34"/>
  <rect x="91.74" y="55.03" width="3.67" height="7.34"/>
  <rect x="91.74" y="69.71" width="3.67" height="3.67"/>
  <rect x="91.74" y="80.72" width="3.67" height="7.34"/>
  <rect x="91.74" y="88.07" width="3.67" height="7.34"/>
</svg>