<svg xmlns="http://www.w3.org/2000/svg" version="1.1" xmlns:xlink="http://www.w3.org/1999/xlink" width="512" height="512" x="0" y="0" viewBox="0 0 24 24" style="enable-background:new 0 0 512 512" xml:space="preserve" fill-rule="evenodd" class=""><g><path d="M18.17 11.25a3.001 3.001 0 0 0 0 6 3.001 3.001 0 0 0 0-6zm0 1.5a1.5 1.5 0 1 1-.001 3.001 1.5 1.5 0 0 1 .001-3.001z" fill="#babace" opacity="1" data-original="#000000" class=""></path><path d="M15.327 22.75c1.52 0 4.173 0 5.693-.013a1.737 1.737 0 0 0 1.623-2.338 4.752 4.752 0 0 0-4.473-3.149 4.786 4.786 0 0 0-4.486 3.145 1.75 1.75 0 0 0 1.643 2.355zm0-1.5h-.001a.25.25 0 0 1-.235-.337l.001-.001a3.286 3.286 0 0 1 3.078-2.162c1.412 0 2.614.902 3.063 2.16l.002.008a.233.233 0 0 1-.028.217.235.235 0 0 1-.194.102h-.006c-1.517.013-4.164.013-5.68.013zM20.75 9V6.5A3.75 3.75 0 0 0 17 2.75H5A3.75 3.75 0 0 0 1.25 6.5v12A3.75 3.75 0 0 0 5 22.25h6a.75.75 0 0 0 0-1.5H5a2.25 2.25 0 0 1-2.25-2.25v-12A2.25 2.25 0 0 1 5 4.25h12a2.25 2.25 0 0 1 2.25 2.25V9a.75.75 0 0 0 1.5 0z" fill="#babace" opacity="1" data-original="#000000" class=""></path><path d="M6 2v3a.75.75 0 0 0 1.5 0V2A.75.75 0 0 0 6 2zM14.5 2v3A.75.75 0 0 0 16 5V2a.75.75 0 0 0-1.5 0zM6 10.75h3.1a.75.75 0 0 0 0-1.5H6a.75.75 0 0 0 0 1.5zM6 14.75h5a.75.75 0 0 0 0-1.5H6a.75.75 0 0 0 0 1.5z" fill="#babace" opacity="1" data-original="#000000" class=""></path></g></svg>