<?xml version="1.0" encoding="UTF-8"?>
<svg id="Calque_1" xmlns="http://www.w3.org/2000/svg" version="1.1" viewBox="0 0 512 512">
  <!-- Generator: Adobe Illustrator 29.6.1, SVG Export Plug-In . SVG Version: 2.1.1 Build 9)  -->
  <defs>
    <style>
      .st0 {
        fill: #babace;
      }
    </style>
  </defs>
  <path class="st0" d="M506.65,188.21L378.64,60.21c-7.14-7.14-18.72-7.14-25.86,0-3.43,3.43-5.35,8.08-5.35,12.92v54.86h-128c-10.1,0-18.29,8.19-18.29,18.29s8.19,18.29,18.29,18.29h146.29c10.1,0,18.29-8.19,18.29-18.29v-29l83.86,83.86-83.86,83.86v-29c0-10.1-8.19-18.29-18.29-18.29h-201.15v-54.86c0-10.1-8.19-18.28-18.29-18.28-4.85,0-9.5,1.93-12.92,5.35L5.35,297.93c-7.14,7.14-7.14,18.72,0,25.86l128,128c3.43,3.43,8.08,5.36,12.93,5.36,2.4,0,4.78-.46,7-1.39,6.83-2.83,11.28-9.5,11.28-16.9v-54.86h128c10.1,0,18.29-8.19,18.29-18.29s-8.19-18.29-18.29-18.29h-146.29c-10.1,0-18.29,8.19-18.29,18.29v29l-83.86-83.86,83.86-83.86v29c0,10.1,8.19,18.29,18.29,18.29h201.15v54.86c0,10.1,8.19,18.28,18.29,18.28,4.85,0,9.5-1.93,12.92-5.35l128-128c7.14-7.14,7.14-18.72,0-25.86h0Z"/>
</svg>