<svg xmlns="http://www.w3.org/2000/svg" version="1.1" xmlns:xlink="http://www.w3.org/1999/xlink" width="512" height="512" x="0" y="0" viewBox="0 0 64 64" style="enable-background:new 0 0 512 512" xml:space="preserve" class=""><g><path d="M54.179 11.214H9.82A6.329 6.329 0 0 0 3.5 17.536v28.928a6.329 6.329 0 0 0 6.321 6.322H54.18a6.329 6.329 0 0 0 6.321-6.322V17.536a6.329 6.329 0 0 0-6.321-6.322zm3.321 35.25a3.325 3.325 0 0 1-3.321 3.322H9.82A3.325 3.325 0 0 1 6.5 46.464V17.536a3.325 3.325 0 0 1 3.321-3.322H54.18a3.325 3.325 0 0 1 3.321 3.322z" fill="#babace" opacity="1" data-original="#000000" class=""></path><path d="M26.272 32.278a6.329 6.329 0 0 0-4.758-10.495c-5.056-.196-8.486 6.201-4.76 10.495-3.458 1.258-6.293 3.982-6.502 8.367a1.5 1.5 0 0 0 2.997.143c.542-8.489 15.988-8.487 16.53 0a1.5 1.5 0 0 0 2.996-.142c-.207-4.385-3.044-7.11-6.503-8.368zm-4.758-7.495c4.393-.02 4.39 6.602 0 6.58-4.456.01-4.35-6.614 0-6.58zM52.25 26.678H36.821a1.5 1.5 0 0 0 0 3H52.25a1.5 1.5 0 0 0 0-3zM48.538 34.322H36.82a1.5 1.5 0 0 0 0 3h11.717a1.5 1.5 0 0 0 0-3z" fill="#babace" opacity="1" data-original="#000000" class=""></path></g></svg>