<svg xmlns="http://www.w3.org/2000/svg" version="1.1" xmlns:xlink="http://www.w3.org/1999/xlink" width="512" height="512" x="0" y="0" viewBox="0 0 48 48" style="enable-background:new 0 0 512 512" xml:space="preserve" class=""><g><path d="M28.987 43.695a.988.988 0 0 0-.135-.41 1 1 0 0 0-1.376-.327 6.861 6.861 0 0 1-2.476.95v-9.909h1.61a1 1 0 1 0 0-2H25v-7h2.35a1 1 0 1 0 0-2H25v-7h9.075c.591 2.452.925 5.155.925 8a1 1 0 0 0 1 1h7.949c-.052 1.029-.157 2.052-.367 3.043a1.001 1.001 0 0 0 1.957.415c.307-1.448.462-2.948.462-4.457 0-12.131-9.869-22-22-22S2 11.869 2 24s9.869 22 22 22a21.3 21.3 0 0 0 4.648-.504 1 1 0 0 0 .757-1.194.991.991 0 0 0-.418-.607zM23 43.908c-3.639-.6-6.764-4.436-8.512-9.908H23zM23 32h-9.075c-.521-2.161-.829-4.523-.897-7H23zM4.051 25h6.978c.063 2.471.352 4.823.841 7H5.682a19.837 19.837 0 0 1-1.631-7zm1.631-9h6.188a36.237 36.237 0 0 0-.841 7H4.051a19.837 19.837 0 0 1 1.631-7zM23 23h-9.972c.068-2.477.376-4.839.897-7H23zm0-18.908V14h-8.512C16.235 8.528 19.361 4.692 23 4.092zM25 14V4.092c3.639.6 6.764 4.436 8.512 9.908zm11.131 2h6.188a19.837 19.837 0 0 1 1.631 7h-6.962a36.06 36.06 0 0 0-.857-7zm5.163-2h-5.682c-1.073-3.633-2.716-6.657-4.749-8.761A20.085 20.085 0 0 1 41.294 14zM17.148 5.235C15.11 7.34 13.461 10.362 12.387 14H6.706a20.081 20.081 0 0 1 10.442-8.765zM6.706 34h5.681c1.075 3.638 2.723 6.661 4.761 8.765A20.078 20.078 0 0 1 6.706 34z" fill="#babace" opacity="1" data-original="#000000"></path><path d="m44.865 31.724-12.927-6.206a2.007 2.007 0 0 0-2.012.164 2.004 2.004 0 0 0-.845 1.835l1.41 14.27a1.976 1.976 0 0 0 1.358 1.701 1.976 1.976 0 0 0 2.106-.547l1.796-1.962 2.345 3.347a2.973 2.973 0 0 0 1.937 1.234 2.98 2.98 0 0 0 2.241-.497l1.639-1.147a3.004 3.004 0 0 0 .737-4.178l-2.345-3.348 2.457-1.016a1.975 1.975 0 0 0 1.235-1.793 1.976 1.976 0 0 0-1.134-1.858zm-4.475 3.295a1.002 1.002 0 0 0-.437 1.498l3.06 4.369a1.002 1.002 0 0 1-.245 1.393l-1.639 1.147a.99.99 0 0 1-.748.166.992.992 0 0 1-.645-.411l-3.06-4.369a.998.998 0 0 0-1.556-.101l-2.638 2.881-1.41-14.271L44 33.527l-3.609 1.493z" fill="#babace" opacity="1" data-original="#000000"></path></g></svg>